<svg xmlns="http://www.w3.org/2000/svg" width="80" height="28.643" viewBox="0 0 80 28.643"><defs><style>.a{fill:#b61923;}.b{fill:#403c3c;}.c{fill:#741b1f;}.d{fill:#d01321;}</style></defs><path class="a" d="M537.37,3625.783h4.9a5.593,5.593,0,0,0,4.107-1.811,29.883,29.883,0,0,1,4.513-4.106c6.3-4.524,8.97-5.19,8.97-5.19s-.644-.023-.992-.026c-5.227-.033-14.328,1.506-21.5,11.133" transform="translate(-534.937 -3602.528)"/><path class="b" d="M550.483,3547.5a26.939,26.939,0,0,1,7.191-1.854l4.872-5.677h-4.912a5.587,5.587,0,0,0-4.236,1.956l-2.287,2.66-2.287-2.66a5.587,5.587,0,0,0-4.236-1.956h-4.912l7.759,9.03a26.48,26.48,0,0,1,3.049-1.5" transform="translate(-537.037 -3534.602)"/><path class="b" d="M679.905,3663.734c-.62.445-1.192.907-1.722,1.371l1.411,1.581a5.588,5.588,0,0,0,4.236,1.956h4.912l-5.931-6.9c-.862.558-1.829,1.214-2.905,1.988" transform="translate(-663.233 -3645.364)"/><path class="c" d="M517.341,3484.751h-3.126a13.9,13.9,0,0,1,19.717,0h-3.126a11.981,11.981,0,0,0-2.028-1.116,11.937,11.937,0,0,0-9.409,0,11.975,11.975,0,0,0-2.028,1.116m11.437,21.554a11.94,11.94,0,0,1-9.409,0,11.984,11.984,0,0,1-2.061-1.139h-3.116a13.9,13.9,0,0,0,19.74.022h-3.126a11.962,11.962,0,0,1-2.028,1.116M513.4,3500.75c-.169-.323-.325-.653-.466-.992a12.456,12.456,0,0,1,.588-10.8l-1.375-1.6a14.543,14.543,0,0,0-.12,15.016q.668-.846,1.373-1.629m21.341.008c-.014.026-.077.128-.129.21l1.386,1.611.11-.185a14.544,14.544,0,0,0-.111-15.03l-1.374,1.6a12.526,12.526,0,0,1,.587,10.793q-.213.513-.469,1" transform="translate(-510 -3480.649)"/><path class="d" d="M569.772,3618.816a47.965,47.965,0,0,1,7.087-3.427,14.832,14.832,0,0,1,2.392-.713l-.24-.008c-.219-.007-.54-.016-.753-.018a25.746,25.746,0,0,0-19.61,8.824l2.037.231a5.455,5.455,0,0,0,4.329-1.322,26.246,26.246,0,0,1,4.757-3.567" transform="translate(-554.325 -3602.528)"/><path class="b" d="M863.245,3570.881v-5.36a.465.465,0,0,0-.461-.469h-1.2a.465.465,0,0,1-.461-.469v-.952a.466.466,0,0,1,.461-.47h5.54a.466.466,0,0,1,.461.47v.952a.465.465,0,0,1-.461.469h-1.2a.466.466,0,0,0-.461.469v5.36a.466.466,0,0,1-.461.47h-1.3a.466.466,0,0,1-.461-.47" transform="translate(-829.91 -3555.696)"/><path class="b" d="M935.019,3565.123a4.056,4.056,0,0,1,.349-1.677,4.372,4.372,0,0,1,2.358-2.282,4.541,4.541,0,0,1,4.867.918,4.358,4.358,0,0,1,.953,1.364,4.2,4.2,0,0,1,0,3.354,4.337,4.337,0,0,1-.953,1.37,4.5,4.5,0,0,1-1.411.922,4.521,4.521,0,0,1-4.865-.922,4.358,4.358,0,0,1-.95-1.37,4.082,4.082,0,0,1-.349-1.677m2.225.006a2.577,2.577,0,0,0,.175.955,2.413,2.413,0,0,0,.473.765,2.182,2.182,0,0,0,.7.506,2.132,2.132,0,0,0,1.731,0,2.176,2.176,0,0,0,.7-.506,2.377,2.377,0,0,0,.47-.765,2.75,2.75,0,0,0,0-1.912,2.384,2.384,0,0,0-.47-.762,2.176,2.176,0,0,0-.7-.506,2.129,2.129,0,0,0-1.731,0,2.182,2.182,0,0,0-.7.506,2.421,2.421,0,0,0-.473.762,2.57,2.57,0,0,0-.175.958" transform="translate(-897.239 -3553.576)"/><path class="b" d="M1050.619,3568.2v-4.571a.466.466,0,0,1,.461-.47h1.308a.466.466,0,0,1,.461.47v4.565a3.516,3.516,0,0,1-.252,1.34,3.006,3.006,0,0,1-.722,1.063,3.357,3.357,0,0,1-1.142.7,4.251,4.251,0,0,1-1.506.253,4.308,4.308,0,0,1-1.432-.232,3.4,3.4,0,0,1-1.151-.666,3.058,3.058,0,0,1-.766-1.057,3.4,3.4,0,0,1-.278-1.4v-4.565a.466.466,0,0,1,.461-.47h1.3a.466.466,0,0,1,.461.47v4.577a1.889,1.889,0,0,0,.089.59,1.276,1.276,0,0,0,.266.467,1.2,1.2,0,0,0,.441.3,1.583,1.583,0,0,0,.607.108,1.545,1.545,0,0,0,.6-.108,1.183,1.183,0,0,0,.435-.3,1.337,1.337,0,0,0,.266-.467,1.855,1.855,0,0,0,.092-.6" transform="translate(-997.992 -3555.695)"/><path class="b" d="M1146.725,3571.35h-1.472a.461.461,0,0,1-.412-.258l-1-2.019a.461.461,0,0,0-.412-.258.465.465,0,0,0-.461.469v1.6a.466.466,0,0,1-.461.47H1141.2a.466.466,0,0,1-.461-.47v-7.251a.466.466,0,0,1,.461-.469h3.119a3.394,3.394,0,0,1,1.207.208,2.84,2.84,0,0,1,.95.581,2.61,2.61,0,0,1,.621.894,2.911,2.911,0,0,1,.222,1.153,2.819,2.819,0,0,1-.382,1.491,2.592,2.592,0,0,1-.686.753.47.47,0,0,0-.135.607l1.01,1.8a.47.47,0,0,1-.4.7m-3.756-4.9a.466.466,0,0,0,.461.47h.787a.876.876,0,0,0,.337-.066.833.833,0,0,0,.278-.187.866.866,0,0,0,.186-.292,1.084,1.084,0,0,0,0-.756.926.926,0,0,0-.186-.3.871.871,0,0,0-.275-.2.791.791,0,0,0-.334-.072h-.793a.465.465,0,0,0-.461.469Z" transform="translate(-1084.672 -3555.695)"/><path class="b" d="M1226.309,3563.379l.811,1.318a.457.457,0,0,0,.782,0l.811-1.318a.459.459,0,0,1,.391-.22h1.49a.47.47,0,0,1,.383.731l-1.9,2.878a.477.477,0,0,0,0,.526l2.222,3.322a.47.47,0,0,1-.381.734h-1.5a.46.46,0,0,1-.389-.216l-1.138-1.809a.457.457,0,0,0-.778,0l-1.133,1.807a.459.459,0,0,1-.389.217h-1.5a.47.47,0,0,1-.381-.734l2.222-3.322a.477.477,0,0,0,0-.526l-1.9-2.877a.47.47,0,0,1,.383-.731h1.488a.46.46,0,0,1,.391.22" transform="translate(-1160.207 -3555.695)"/><path class="b" d="M1326.017,3571.291h-1.355a.462.462,0,0,1-.43-.3l-.192-.507a.462.462,0,0,0-.431-.3H1321.2a.462.462,0,0,0-.431.3l-.188.5a.462.462,0,0,1-.431.3h-1.353a.469.469,0,0,1-.428-.646l2.882-7.257a.462.462,0,0,1,.428-.294h1.461a.462.462,0,0,1,.428.294l2.882,7.257a.469.469,0,0,1-.428.646m-3.624-5.258-.058.267a.5.5,0,0,1-.02.067l-.493,1.3a.469.469,0,0,0,.431.638h.3a.469.469,0,0,0,.431-.638l-.491-1.3a.471.471,0,0,1-.022-.076l-.052-.262Z" transform="translate(-1246.479 -3555.636)"/><path class="b" d="M885.443,3678.1H870.2a.1.1,0,0,1,0-.206h15.245a.1.1,0,0,1,0,.206" transform="translate(-838.087 -3660.049)"/><path class="a" d="M880.8,3701.94h.236v1.563c0,.656-.367.989-1.091.989s-1.091-.333-1.091-.989v-1.563h.236v1.557c0,.529.272.776.855.776s.856-.247.856-.776Zm-3.614,1.43h.95a.916.916,0,0,1-.978.9,1.021,1.021,0,0,1-1.068-1.083,1.041,1.041,0,0,1,1.068-1.084.876.876,0,0,1,.933.643l.007.033h.237l-.011-.051a1.091,1.091,0,0,0-1.167-.844,1.262,1.262,0,0,0-1.3,1.3,1.234,1.234,0,0,0,1.3,1.3,1.124,1.124,0,0,0,1-.528v.474h.216v-1.288h-1.189Zm-7.739-.181a1.3,1.3,0,1,1-1.3-1.3,1.265,1.265,0,0,1,1.3,1.3m-.236,0a1.065,1.065,0,1,0-1.065,1.083,1.041,1.041,0,0,0,1.065-1.083m12.3,1.249h.236v-2.5h-.236Zm-9.745-.941c0,.529-.272.776-.855.776s-.855-.247-.855-.776v-1.557h-.236v1.563c0,.656.367.989,1.091.989s1.091-.333,1.091-.989v-1.563h-.236Zm-6.269-.328-.943-1.229h-.319l1.144,1.457v1.042h.236V3703.4l1.144-1.457h-.3Zm9.1,1.209.029.061h-.235l-.012-.011c-.053-.05-.068-.166-.08-.591-.009-.394-.127-.5-.57-.5h-1.015v1.1h-.236v-2.5h1.254c.567,0,.842.223.842.681a.634.634,0,0,1-.384.6.511.511,0,0,1,.344.51,1.919,1.919,0,0,0,.062.652m-.258-1.767c0-.3-.194-.451-.593-.451h-1.031v.96h.992c.426,0,.633-.167.633-.509m18.511.578a1.3,1.3,0,1,1-1.3-1.3,1.265,1.265,0,0,1,1.3,1.3m-.236,0a1.065,1.065,0,1,0-1.065,1.083,1.041,1.041,0,0,0,1.065-1.083m10.543.308c0,.529-.272.776-.855.776s-.855-.247-.855-.776v-1.557h-.236v1.563c0,.656.367.989,1.091.989s1.091-.333,1.091-.989v-1.563h-.236Zm2.832.881.029.061h-.235l-.012-.011c-.053-.05-.068-.166-.08-.591-.009-.394-.127-.5-.57-.5h-1.015v1.1h-.236v-2.5h1.254c.567,0,.842.223.842.681a.634.634,0,0,1-.384.6.511.511,0,0,1,.344.51,1.919,1.919,0,0,0,.062.652m-.258-1.767c0-.3-.194-.451-.593-.451h-1.032v.96h.992c.426,0,.633-.167.633-.509m2.576-.671-.963,1.229-.943-1.229h-.319l1.144,1.457v1.042h.236V3703.4l1.144-1.457Zm-23.807,1.249a1.1,1.1,0,0,1-1.131,1.249h-1.124v-2.5h1.151c.5,0,1.1.217,1.1,1.249m-.236,0c0-.683-.3-1.03-.9-1.03h-.882v2.059h.919c.55,0,.865-.375.865-1.029m16.711-1.249h-.3l-.861,1.042-.845-1.042h-.314l1,1.229-1.041,1.27h.3l.894-1.085.884,1.085h.31l-1.038-1.269Zm-15.791,1.315h1.651v-.219h-1.651v-.876H886.9v-.22h-1.956v2.5h1.976v-.22h-1.741Zm2.77-1.1h.957v2.279h.236v-2.279h.957v-.22h-2.149Zm10.227,1.337c0,.529-.272.776-.855.776s-.855-.247-.855-.776v-1.557h-.236v1.563c0,.656.367.989,1.091.989s1.091-.333,1.091-.989v-1.563h-.236Zm-3.78-1.557h-.236v2.5h1.79v-.22H894.4Z" transform="translate(-832.745 -3681.873)"/></svg>