<svg xmlns="http://www.w3.org/2000/svg" width="75.2" height="45.116" viewBox="0 0 75.2 45.116"><defs><style>.a{fill:#009227;}</style></defs><g transform="translate(-6.746 -11.25)"><path class="a" d="M37.589,19.546a1.1,1.1,0,0,0,0-1.527l-4.653-4.935a1.014,1.014,0,0,0-.752-.329h0a1.014,1.014,0,0,0-.752.329L15.806,29.321l6.2,6.368Z" transform="translate(21.218 3.524)"/><path class="a" d="M13.291,18.027a1.024,1.024,0,0,0-1.5,0L7.064,22.891a1.106,1.106,0,0,0,0,1.551L21.915,39.715a4.574,4.574,0,0,0,3.1,1.551,4.87,4.87,0,0,0,3.078-1.5l.023-.023L31.267,36.5Z" transform="translate(0 15.1)"/><path class="a" d="M69,16.514l-4.653-4.935a1.014,1.014,0,0,0-.752-.329h0a1.014,1.014,0,0,0-.752.329L30.463,45.111,18.691,32.986a1.024,1.024,0,0,0-1.5,0L12.464,37.85a1.106,1.106,0,0,0,0,1.551L27.315,54.674a4.574,4.574,0,0,0,3.1,1.551,4.87,4.87,0,0,0,3.078-1.5l.023-.023L69,18.017A1.093,1.093,0,0,0,69,16.514Z" transform="translate(12.647)"/></g></svg>