<svg xmlns="http://www.w3.org/2000/svg" width="13.155" height="13.154" viewBox="0 0 13.155 13.154"><defs><style>.a{fill:none;stroke:#741b1f;stroke-linecap:round;stroke-linejoin:round;}</style></defs><g transform="translate(0.707 0.707)"><path class="a" d="M10.54,13.439a5.374,5.374,0,0,1-3.17,1.1c-3.736,0-5.87-4.269-5.87-4.269A9.846,9.846,0,0,1,4.2,7.1m2.049-.971A4.867,4.867,0,0,1,7.37,6c3.736,0,5.87,4.269,5.87,4.269a9.872,9.872,0,0,1-1.153,1.7M8.5,11.4A1.6,1.6,0,1,1,6.239,9.138" transform="translate(-1.5 -4.399)"/><path class="a" d="M1.5,1.5,13.24,13.24" transform="translate(-1.5 -1.5)"/></g></svg>