<svg xmlns="http://www.w3.org/2000/svg" width="315.856" height="111.126" viewBox="0 0 315.856 111.126"><defs><style>.a{fill:#fff;}</style></defs><g transform="translate(192.585 -399.916)"><path class="a" d="M-136.124,931.937h19.358a22.262,22.262,0,0,0,16.217-7.027,117.284,117.284,0,0,1,17.818-15.93c24.864-17.553,35.416-20.135,35.416-20.135s-2.541-.09-3.917-.1c-20.639-.127-56.57,5.845-84.891,43.192" transform="translate(-46.856 -441.799)"/><path class="a" d="M-92.173,876.469a107.889,107.889,0,0,1,28.391-7.192l19.235-22.024H-63.94a22.224,22.224,0,0,0-16.724,7.588L-89.7,865.159l-9.031-10.318a22.225,22.225,0,0,0-16.724-7.588h-19.394l30.634,35.033a105.274,105.274,0,0,1,12.037-5.817" transform="translate(-47.328 -426.519)"/><path class="a" d="M-51.094,922.62c-2.449,1.728-4.7,3.519-6.8,5.318l5.57,6.135A22.226,22.226,0,0,0-35.6,941.661h19.394l-23.419-26.752c-3.4,2.163-7.22,4.711-11.469,7.711" transform="translate(-75.667 -451.436)"/><path class="a" d="M-122.347,830.216H-134.69A55.38,55.38,0,0,1-95.766,814.3a55.38,55.38,0,0,1,38.924,15.918H-69.186a47.541,47.541,0,0,0-8.007-4.33,47.419,47.419,0,0,0-18.574-3.747,47.417,47.417,0,0,0-18.574,3.747,47.548,47.548,0,0,0-8.008,4.33m45.155,83.621a47.417,47.417,0,0,1-18.574,3.747,47.415,47.415,0,0,1-18.574-3.747,47.547,47.547,0,0,1-8.137-4.417h-12.3a55.382,55.382,0,0,0,39.013,16,55.379,55.379,0,0,0,38.924-15.917H-69.186a47.481,47.481,0,0,1-8.007,4.33M-137.9,892.283c-.667-1.252-1.284-2.533-1.84-3.849a47.413,47.413,0,0,1-3.747-18.573,47.418,47.418,0,0,1,3.747-18.574,47.934,47.934,0,0,1,2.322-4.737l-5.428-6.2a55.291,55.291,0,0,0-8.482,29.513A55.3,55.3,0,0,0-143.32,898.6q2.636-3.283,5.419-6.321m84.258.031c-.054.1-.3.5-.509.815l5.473,6.252.433-.718a55.294,55.294,0,0,0,8.043-28.8,55.3,55.3,0,0,0-8.48-29.51l-5.425,6.21a47.859,47.859,0,0,1,2.317,4.726,47.418,47.418,0,0,1,3.747,18.574,47.413,47.413,0,0,1-3.747,18.573q-.841,1.989-1.853,3.88" transform="translate(-41.256 -414.382)"/><path class="a" d="M52.126,890.093V869.3a1.822,1.822,0,0,0-1.822-1.822H45.559a1.821,1.821,0,0,1-1.821-1.821V861.96a1.822,1.822,0,0,1,1.821-1.822H67.431a1.822,1.822,0,0,1,1.822,1.822v3.694a1.822,1.822,0,0,1-1.822,1.821H62.71a1.822,1.822,0,0,0-1.822,1.822v20.8a1.822,1.822,0,0,1-1.821,1.822H53.948a1.822,1.822,0,0,1-1.822-1.822" transform="translate(-113.097 -431.264)"/><path class="a" d="M84.793,875.5A15.509,15.509,0,0,1,86.171,869a16.985,16.985,0,0,1,3.75-5.292,17.489,17.489,0,0,1,5.561-3.563,18.6,18.6,0,0,1,13.646,0A17.626,17.626,0,0,1,114.7,863.7,16.888,16.888,0,0,1,118.462,869a16.043,16.043,0,0,1,0,13.015,16.819,16.819,0,0,1-3.762,5.316,18.075,18.075,0,0,1-24.779,0,16.916,16.916,0,0,1-3.75-5.316,15.609,15.609,0,0,1-1.378-6.507m8.785.023a9.845,9.845,0,0,0,.689,3.7,9.337,9.337,0,0,0,1.869,2.967,8.618,8.618,0,0,0,2.769,1.963,8.24,8.24,0,0,0,3.411.713,8.323,8.323,0,0,0,3.423-.713,8.583,8.583,0,0,0,2.78-1.963,9.19,9.19,0,0,0,1.858-2.967,10.5,10.5,0,0,0,0-7.419,9.224,9.224,0,0,0-1.858-2.956,8.58,8.58,0,0,0-2.78-1.963,8.321,8.321,0,0,0-3.423-.713,8.238,8.238,0,0,0-3.411.713,8.615,8.615,0,0,0-2.769,1.963,9.374,9.374,0,0,0-1.869,2.956,9.817,9.817,0,0,0-.689,3.715" transform="translate(-128.217 -430.787)"/><path class="a" d="M166.041,879.7V861.96a1.822,1.822,0,0,1,1.822-1.821h5.166a1.821,1.821,0,0,1,1.821,1.821v17.712a13.441,13.441,0,0,1-.993,5.2,11.667,11.667,0,0,1-2.85,4.124,13.289,13.289,0,0,1-4.51,2.71,17.028,17.028,0,0,1-5.946.981,17.282,17.282,0,0,1-5.654-.9,13.51,13.51,0,0,1-4.545-2.582,11.9,11.9,0,0,1-3.026-4.1,13,13,0,0,1-1.1-5.433V861.96a1.822,1.822,0,0,1,1.822-1.821h5.142a1.822,1.822,0,0,1,1.822,1.821v17.759a7.2,7.2,0,0,0,.351,2.29,4.925,4.925,0,0,0,1.051,1.81,4.749,4.749,0,0,0,1.741,1.18,6.346,6.346,0,0,0,2.395.421,6.2,6.2,0,0,0,2.36-.421,4.661,4.661,0,0,0,1.717-1.18,5.165,5.165,0,0,0,1.052-1.81,7.067,7.067,0,0,0,.362-2.313" transform="translate(-150.843 -431.265)"/><path class="a" d="M222.72,891.915H216.91a1.821,1.821,0,0,1-1.627-1l-3.944-7.833a1.822,1.822,0,0,0-3.449.819v6.194a1.821,1.821,0,0,1-1.822,1.821H200.9a1.821,1.821,0,0,1-1.822-1.821V861.96a1.822,1.822,0,0,1,1.822-1.821h12.314a13.617,13.617,0,0,1,4.767.806,11.261,11.261,0,0,1,3.75,2.255,10.116,10.116,0,0,1,2.454,3.469,11.135,11.135,0,0,1,.876,4.475,10.786,10.786,0,0,1-1.507,5.783,10.121,10.121,0,0,1-2.707,2.922,1.8,1.8,0,0,0-.534,2.356l3.987,6.986a1.821,1.821,0,0,1-1.582,2.724M207.89,872.92a1.822,1.822,0,0,0,1.822,1.822h3.108a3.5,3.5,0,0,0,1.332-.257,3.293,3.293,0,0,0,1.1-.724,3.361,3.361,0,0,0,.736-1.133,3.939,3.939,0,0,0,.268-1.483,3.9,3.9,0,0,0-.268-1.448,3.6,3.6,0,0,0-.736-1.169,3.442,3.442,0,0,0-1.087-.771,3.151,3.151,0,0,0-1.32-.281h-3.131a1.822,1.822,0,0,0-1.822,1.822Z" transform="translate(-170.308 -431.265)"/><path class="a" d="M255.667,860.993l3.2,5.113a1.822,1.822,0,0,0,3.088,0l3.2-5.113a1.822,1.822,0,0,1,1.545-.855h5.881a1.822,1.822,0,0,1,1.514,2.837l-7.484,11.166a1.822,1.822,0,0,0,.008,2.04l8.772,12.889a1.822,1.822,0,0,1-1.506,2.847h-5.91a1.822,1.822,0,0,1-1.534-.84l-4.491-7.016a1.822,1.822,0,0,0-3.071,0l-4.472,7.011a1.82,1.82,0,0,1-1.536.842h-5.908a1.822,1.822,0,0,1-1.506-2.847l8.771-12.887a1.822,1.822,0,0,0,.006-2.041l-7.5-11.164a1.822,1.822,0,0,1,1.512-2.838h5.877a1.822,1.822,0,0,1,1.544.855" transform="translate(-187.27 -431.264)"/><path class="a" d="M328.091,891.9h-5.349a1.821,1.821,0,0,1-1.7-1.166l-.759-1.967a1.821,1.821,0,0,0-1.7-1.166h-9.527a1.823,1.823,0,0,0-1.7,1.174l-.742,1.951a1.821,1.821,0,0,1-1.7,1.174h-5.342a1.822,1.822,0,0,1-1.689-2.5l11.378-28.157a1.823,1.823,0,0,1,1.689-1.14h5.768a1.821,1.821,0,0,1,1.689,1.14L329.78,889.4a1.821,1.821,0,0,1-1.689,2.5m-14.309-20.4-.227,1.034a1.813,1.813,0,0,1-.079.262l-1.944,5.061a1.821,1.821,0,0,0,1.7,2.475H314.4a1.822,1.822,0,0,0,1.7-2.475l-1.937-5.044a1.8,1.8,0,0,1-.086-.3l-.2-1.016Z" transform="translate(-206.644 -431.251)"/><path class="a" d="M109.315,924.677H49.124a.4.4,0,0,1,0-.8h60.191a.4.4,0,0,1,0,.8" transform="translate(-114.933 -454.739)"/><path class="a" d="M110.861,937.418h.931v6.066c0,2.545-1.45,3.836-4.308,3.836s-4.308-1.291-4.308-3.836v-6.066h.931v6.039c0,2.054,1.073,3.011,3.378,3.011s3.378-.956,3.378-3.011Zm-14.268,5.547h3.751a3.592,3.592,0,0,1-3.863,3.5,3.992,3.992,0,0,1-4.217-4.2,4.073,4.073,0,0,1,4.217-4.2c1.922,0,3.334.956,3.683,2.5l.029.128h.937l-.044-.2c-.453-2.052-2.175-3.277-4.606-3.277a4.938,4.938,0,0,0-5.148,5.056,4.831,4.831,0,0,0,5.148,5.056,4.458,4.458,0,0,0,3.955-2.048v1.838h.852v-5H96.592Zm-30.557-.7a5.135,5.135,0,1,1-5.134-5.056,4.947,4.947,0,0,1,5.134,5.056m-.931,0a4.2,4.2,0,1,0-4.2,4.2,4.071,4.071,0,0,0,4.2-4.2m48.574,4.846h.931v-9.692h-.931ZM75.2,943.458c0,2.054-1.073,3.011-3.378,3.011s-3.377-.956-3.377-3.011v-6.039h-.931v6.066c0,2.545,1.449,3.836,4.308,3.836s4.308-1.291,4.308-3.836v-6.066H75.2Zm-24.752-1.274-3.725-4.765h-1.26l4.518,5.651v4.041h.931v-4.041l4.518-5.651h-1.18Zm35.936,4.692.112.234h-.927l-.047-.043c-.207-.192-.269-.642-.315-2.293-.037-1.531-.5-1.926-2.25-1.926H78.952v4.262h-.931v-9.692h4.951c2.238,0,3.325.864,3.325,2.642a2.456,2.456,0,0,1-1.516,2.309,1.984,1.984,0,0,1,1.359,1.978,7.308,7.308,0,0,0,.246,2.528m-1.02-6.854c0-1.179-.766-1.751-2.342-1.751H78.952V942h3.915c1.682,0,2.5-.646,2.5-1.974m73.085,2.243a5.135,5.135,0,1,1-5.135-5.056,4.948,4.948,0,0,1,5.135,5.056m-.931,0a4.2,4.2,0,1,0-4.2,4.2,4.071,4.071,0,0,0,4.2-4.2m41.624,1.193c0,2.054-1.073,3.011-3.378,3.011s-3.378-.956-3.378-3.011v-6.039h-.931v6.066c0,2.545,1.45,3.836,4.308,3.836s4.308-1.291,4.308-3.836v-6.066h-.931Zm11.183,3.418.113.234h-.928l-.047-.043c-.208-.192-.27-.641-.315-2.293-.037-1.531-.5-1.926-2.25-1.926h-4.007v4.262h-.93v-9.692h4.951c2.237,0,3.324.864,3.324,2.642a2.456,2.456,0,0,1-1.515,2.309,1.983,1.983,0,0,1,1.358,1.978,7.342,7.342,0,0,0,.246,2.528m-1.019-6.854c0-1.179-.766-1.751-2.342-1.751h-4.073V942h3.915c1.682,0,2.5-.646,2.5-1.974m10.169-2.6-3.8,4.765-3.725-4.765h-1.26l4.518,5.651v4.041h.931v-4.041l4.518-5.651Zm-94,4.846c0,3.034-1.67,4.846-4.466,4.846h-4.44v-9.692h4.545c1.989,0,4.361.841,4.361,4.846m-.931,0c0-2.65-1.2-3.994-3.562-3.994h-3.482v7.987h3.627c2.171,0,3.417-1.455,3.417-3.994m65.978-4.846h-1.186l-3.4,4.04-3.334-4.04h-1.239l3.966,4.767-4.111,4.925h1.187l3.53-4.21,3.491,4.21h1.226l-4.1-4.925Zm-62.347,5.1H134.7v-.852h-6.518v-3.4h6.793v-.852h-7.724v9.692h7.8v-.852h-6.872Zm10.937-4.249H142.9v8.839h.931v-8.839h3.777v-.852H139.12Zm40.38,5.187c0,2.054-1.073,3.011-3.378,3.011s-3.378-.956-3.378-3.011v-6.039h-.931v6.066c0,2.545,1.449,3.836,4.308,3.836s4.308-1.291,4.308-3.836v-6.066H179.5Zm-14.925-6.039h-.93v9.692h7.069v-.852h-6.138Z" transform="translate(-113.734 -459.648)"/></g></svg>