<svg xmlns="http://www.w3.org/2000/svg" width="50.102" height="31.789" viewBox="0 0 50.102 31.789"><defs><style>.a,.b{fill:none;}.b{stroke:#fff;stroke-linecap:round;stroke-linejoin:round;stroke-width:2px;}.c,.d{stroke:none;}.d{fill:#fff;}</style></defs><g transform="translate(2 2)"><g class="a"><path class="c" d="M29.526,5.21H22.579V1.737A1.735,1.735,0,0,0,20.842,0H10.421A1.735,1.735,0,0,0,8.684,1.737V5.21H1.737A1.735,1.735,0,0,0,0,6.947V26.921a.871.871,0,0,0,.868.868H30.395a.871.871,0,0,0,.868-.868V6.947A1.735,1.735,0,0,0,29.526,5.21ZM8.684,21.081a.653.653,0,0,1-.651.651H5.862a.653.653,0,0,1-.651-.651V18.91a.653.653,0,0,1,.651-.651H8.033a.653.653,0,0,1,.651.651Zm0-8.652a.653.653,0,0,1-.651.651H5.862a.653.653,0,0,1-.651-.651V10.258a.653.653,0,0,1,.651-.651H8.033a.653.653,0,0,1,.651.651Zm8.684,14.709a.653.653,0,0,1-.651.651H14.546a.653.653,0,0,1-.651-.651V18.91a.653.653,0,0,1,.651-.651h2.171a.653.653,0,0,1,.651.651Zm0-14.709a.653.653,0,0,1-.651.651H14.546a.653.653,0,0,1-.651-.651V10.258a.653.653,0,0,1,.651-.651h2.171a.653.653,0,0,1,.651.651Zm8.684,8.652a.653.653,0,0,1-.651.651H23.23a.653.653,0,0,1-.651-.651V18.91a.653.653,0,0,1,.651-.651H25.4a.653.653,0,0,1,.651.651Zm0-8.652a.653.653,0,0,1-.651.651H23.23a.653.653,0,0,1-.651-.651V10.258a.653.653,0,0,1,.651-.651H25.4a.653.653,0,0,1,.651.651Z"/><path class="d" d="M 10.42098426818848 3.814697265625e-06 C 9.460304260253906 3.814697265625e-06 8.684154510498047 0.7761440277099609 8.684154510498047 1.736833572387695 L 8.684154510498047 5.210493087768555 L 1.736835479736328 5.210493087768555 C 0.7761459350585938 5.210493087768555 -5.7220458984375e-06 5.986642837524414 -5.7220458984375e-06 6.947322845458984 L -5.7220458984375e-06 26.9208927154541 C -5.7220458984375e-06 27.39852333068848 0.3907852172851563 27.78930282592773 0.8684158325195313 27.78930282592773 L 30.39455413818359 27.78930282592773 C 30.87218475341797 27.78930282592773 31.26296424865723 27.39852333068848 31.26296424865723 26.9208927154541 L 31.26296424865723 6.947322845458984 C 31.26296424865723 5.986642837524414 30.48682403564453 5.210493087768555 29.5261344909668 5.210493087768555 L 22.57881546020508 5.210493087768555 L 22.57881546020508 1.736833572387695 C 22.57881546020508 0.7761440277099609 21.80266571044922 3.814697265625e-06 20.84197616577148 3.814697265625e-06 L 10.42098426818848 3.814697265625e-06 M 8.032844543457031 13.08051300048828 L 5.861804962158203 13.08051300048828 C 5.503585815429688 13.08051300048828 5.210494995117188 12.7874231338501 5.210494995117188 12.42920303344727 L 5.210494995117188 10.25816345214844 C 5.210494995117188 9.899942398071289 5.503585815429688 9.606853485107422 5.861804962158203 9.606853485107422 L 8.032844543457031 9.606853485107422 C 8.39106559753418 9.606853485107422 8.684154510498047 9.899942398071289 8.684154510498047 10.25816345214844 L 8.684154510498047 12.42920303344727 C 8.684154510498047 12.7874231338501 8.39106559753418 13.08051300048828 8.032844543457031 13.08051300048828 M 16.71700477600098 13.08051300048828 L 14.54596519470215 13.08051300048828 C 14.187744140625 13.08051300048828 13.89465522766113 12.7874231338501 13.89465522766113 12.42920303344727 L 13.89465522766113 10.25816345214844 C 13.89465522766113 9.899942398071289 14.187744140625 9.606853485107422 14.54596519470215 9.606853485107422 L 16.71700477600098 9.606853485107422 C 17.07522583007813 9.606853485107422 17.36831474304199 9.899942398071289 17.36831474304199 10.25816345214844 L 17.36831474304199 12.42920303344727 C 17.36831474304199 12.7874231338501 17.07522583007813 13.08051300048828 16.71700477600098 13.08051300048828 M 25.40116500854492 13.08051300048828 L 23.23012542724609 13.08051300048828 C 22.87190628051758 13.08051300048828 22.57881546020508 12.7874231338501 22.57881546020508 12.42920303344727 L 22.57881546020508 10.25816345214844 C 22.57881546020508 9.899942398071289 22.87190628051758 9.606853485107422 23.23012542724609 9.606853485107422 L 25.40116500854492 9.606853485107422 C 25.75938415527344 9.606853485107422 26.05247497558594 9.899942398071289 26.05247497558594 10.25816345214844 L 26.05247497558594 12.42920303344727 C 26.05247497558594 12.7874231338501 25.75938415527344 13.08051300048828 25.40116500854492 13.08051300048828 M 8.032844543457031 21.73244285583496 L 5.861804962158203 21.73244285583496 C 5.503585815429688 21.73244285583496 5.210494995117188 21.43935394287109 5.210494995117188 21.08113288879395 L 5.210494995117188 18.91009330749512 C 5.210494995117188 18.55187225341797 5.503585815429688 18.2587833404541 5.861804962158203 18.2587833404541 L 8.032844543457031 18.2587833404541 C 8.39106559753418 18.2587833404541 8.684154510498047 18.55187225341797 8.684154510498047 18.91009330749512 L 8.684154510498047 21.08113288879395 C 8.684154510498047 21.43935394287109 8.39106559753418 21.73244285583496 8.032844543457031 21.73244285583496 M 16.71700477600098 27.78930282592773 L 14.54596519470215 27.78930282592773 C 14.187744140625 27.78930282592773 13.89465522766113 27.49621391296387 13.89465522766113 27.13799285888672 L 13.89465522766113 18.91009330749512 C 13.89465522766113 18.55187225341797 14.187744140625 18.2587833404541 14.54596519470215 18.2587833404541 L 16.71700477600098 18.2587833404541 C 17.07522583007813 18.2587833404541 17.36831474304199 18.55187225341797 17.36831474304199 18.91009330749512 L 17.36831474304199 27.13799285888672 C 17.36831474304199 27.49621391296387 17.07522583007813 27.78930282592773 16.71700477600098 27.78930282592773 M 25.40116500854492 21.73244285583496 L 23.23012542724609 21.73244285583496 C 22.87190628051758 21.73244285583496 22.57881546020508 21.43935394287109 22.57881546020508 21.08113288879395 L 22.57881546020508 18.91009330749512 C 22.57881546020508 18.55187225341797 22.87190628051758 18.2587833404541 23.23012542724609 18.2587833404541 L 25.40116500854492 18.2587833404541 C 25.75938415527344 18.2587833404541 26.05247497558594 18.55187225341797 26.05247497558594 18.91009330749512 L 26.05247497558594 21.08113288879395 C 26.05247497558594 21.43935394287109 25.75938415527344 21.73244285583496 25.40116500854492 21.73244285583496 M 10.42098426818848 -1.999996185302734 L 20.84197616577148 -1.999996185302734 C 22.90247535705566 -1.999996185302734 24.57881546020508 -0.3236675262451172 24.57881546020508 1.736833572387695 L 24.57881546020508 3.210493087768555 L 29.5261344909668 3.210493087768555 C 31.58663558959961 3.210493087768555 33.26296615600586 4.886823654174805 33.26296615600586 6.947322845458984 L 33.26296615600586 26.9208927154541 C 33.26296615600586 28.50254249572754 31.97620582580566 29.78930282592773 30.39455413818359 29.78930282592773 L 0.8684158325195313 29.78930282592773 C -0.7132358551025391 29.78930282592773 -2.000003814697266 28.50254249572754 -2.000003814697266 26.9208927154541 L -2.000003814697266 6.947322845458984 C -2.000003814697266 4.886823654174805 -0.3236656188964844 3.210493087768555 1.736835479736328 3.210493087768555 L 6.684154510498047 3.210493087768555 L 6.684154510498047 1.736833572387695 C 6.684154510498047 -0.3236675262451172 8.360485076904297 -1.999996185302734 10.42098426818848 -1.999996185302734 Z"/></g><path class="b" d="M30,12v9" transform="translate(12.602 -0.187)"/><path class="b" d="M34.5,16.5h-9" transform="translate(12.602 -0.187)"/></g></svg>